<?xml version="1.0" standalone="no"?>
<!DOCTYPE svg PUBLIC "-//W3C//DTD SVG 20010904//EN"
 "http://www.w3.org/TR/2001/REC-SVG-20010904/DTD/svg10.dtd">
<svg version="1.0" xmlns="http://www.w3.org/2000/svg"
 width="500.000000pt" height="500.000000pt" viewBox="0 0 500.000000 500.000000"
 preserveAspectRatio="xMidYMid meet">
<metadata>
Created by potrace 1.16, written by Peter Selinger 2001-2019
</metadata>
<g transform="translate(0.000000,500.000000) scale(0.100000,-0.100000)"
fill="#000000" stroke="none">
<path d="M3280 4401 c-47 -10 -121 -33 -164 -50 -166 -66 -202 -96 -619 -510
-214 -213 -411 -415 -438 -451 -89 -118 -154 -265 -178 -404 -14 -75 -14 -252
-1 -333 55 -335 306 -628 633 -737 82 -27 204 -52 213 -43 13 13 66 156 71
193 l5 41 -58 7 c-210 26 -382 127 -508 299 -37 50 -90 168 -107 237 -18 70
-18 259 0 330 7 30 33 98 58 150 l45 95 412 411 c440 440 457 454 606 503 88
28 203 43 275 36 300 -31 537 -226 627 -515 33 -108 31 -282 -4 -392 -54 -164
-65 -177 -514 -628 -409 -409 -414 -415 -414 -455 0 -22 -7 -85 -15 -139 -8
-55 -15 -101 -15 -103 0 -10 142 72 200 116 36 27 238 224 451 438 413 417
444 453 510 619 116 290 81 630 -92 886 -55 81 -176 202 -257 257 -84 57 -188
103 -292 131 -119 32 -313 37 -430 11z"/>
<path d="M2252 3083 c-31 -73 -52 -141 -52 -167 0 -21 6 -24 58 -31 208 -25
381 -126 506 -298 37 -50 90 -168 107 -237 18 -70 18 -259 0 -330 -7 -30 -33
-98 -58 -150 l-45 -95 -412 -411 c-446 -447 -455 -454 -621 -510 -112 -37
-284 -40 -395 -6 -242 75 -416 249 -492 492 -33 106 -32 272 1 380 52 170 65
186 517 640 408 408 414 415 414 455 0 22 7 85 15 139 8 55 15 101 15 103 0
10 -142 -72 -200 -116 -36 -27 -238 -224 -451 -438 -413 -417 -444 -453 -510
-619 -116 -290 -81 -630 92 -886 55 -81 176 -202 257 -257 256 -173 596 -208
886 -92 166 66 202 97 619 510 214 213 411 415 438 451 89 118 154 265 178
404 14 75 14 252 1 333 -54 329 -303 624 -620 733 -65 22 -181 50 -211 50 -10
0 -24 -18 -37 -47z"/>
</g>
</svg>
